<svg id="Capa_1" enable-background="new 0 0 512 512" height="512" viewBox="0 0 512 512" width="512" xmlns="http://www.w3.org/2000/svg"><g><g><path d="m420.121 375.191c-156.247 0-283.316-127.071-283.311-283.318.001-22.38 2.601-44.15 7.512-65.03 4.671-19.859-18.199-34.747-34.328-22.256-66.913 51.815-109.994 132.922-109.994 224.102-.001 156.382 126.929 283.312 283.312 283.311 91.179-.001 172.286-43.081 224.102-109.993 12.491-16.13-2.397-38.999-22.256-34.328-20.882 4.911-42.655 7.511-65.037 7.512z" fill="#f8e86a"/></g><g><path d="m389.603 14.237 19.395 59.692c2.758 8.489 10.669 14.237 19.595 14.237h62.763c19.959 0 28.258 25.541 12.111 37.272l-50.777 36.891c-7.221 5.247-10.243 14.546-7.485 23.036l19.395 59.692c6.168 18.982-15.558 34.767-31.706 23.036l-50.776-36.893c-7.221-5.247-17-5.247-24.221 0l-50.777 36.891c-16.147 11.732-37.873-4.053-31.706-23.036l19.395-59.692c2.758-8.489-.263-17.789-7.485-23.036l-50.777-36.891c-16.147-11.732-7.849-37.272 12.111-37.272h62.763c8.926 0 16.837-5.748 19.595-14.237l19.395-59.692c6.17-18.981 33.024-18.981 39.192.002z" fill="#f8e86a"/></g><g><path d="m449.935 199.917c-.605.008-1.208.023-1.815.023-68.049 0-124.907-47.873-138.759-111.775h-60.701c-19.959 0-28.258 25.541-12.111 37.272l50.777 36.891c7.221 5.247 10.243 14.546 7.485 23.036l-19.395 59.692c-6.168 18.982 15.558 34.767 31.706 23.035l50.777-36.891c7.221-5.247 17-5.247 24.221 0l50.777 36.891c16.147 11.732 37.873-4.053 31.705-23.035z" fill="#fab659"/></g><g><path d="m336.84 458.973c-156.746 0-283.813-127.068-283.813-283.813 0-64.026 21.208-123.093 56.973-170.578-.002.002-.004.003-.006.005-66.913 51.815-109.993 132.922-109.994 224.102-.001 156.382 126.929 283.312 283.312 283.311 91.179 0 172.286-43.081 224.102-109.993.002-.002.003-.004.005-.006-47.485 35.764-106.553 56.972-170.579 56.972z" fill="#fab659"/></g><g fill="#423e4f"><path d="m305.675 111.248c-4.143 0-7.5 3.358-7.5 7.5v12.362c0 4.142 3.357 7.5 7.5 7.5s7.5-3.358 7.5-7.5v-12.362c0-4.143-3.358-7.5-7.5-7.5z"/><path d="m434.341 111.248c-4.143 0-7.5 3.358-7.5 7.5v12.362c0 4.142 3.357 7.5 7.5 7.5s7.5-3.358 7.5-7.5v-12.362c0-4.143-3.358-7.5-7.5-7.5z"/><path d="m399.979 130.98c-4.143 0-7.5 3.358-7.5 7.5 0 4.076-3.315 7.392-7.392 7.392s-7.393-3.316-7.393-7.392c0-4.142-3.357-7.5-7.5-7.5s-7.5 3.358-7.5 7.5c0 4.076-3.315 7.392-7.392 7.392s-7.392-3.316-7.392-7.392c0-4.142-3.357-7.5-7.5-7.5s-7.5 3.358-7.5 7.5c0 12.347 10.045 22.392 22.392 22.392 5.713 0 10.931-2.154 14.892-5.689 3.96 3.535 9.179 5.689 14.893 5.689 12.347 0 22.392-10.045 22.392-22.392 0-4.142-3.357-7.5-7.5-7.5z"/></g></g></svg>