<svg id="Capa_1" enable-background="new 0 0 512 512" height="512" viewBox="0 0 512 512" width="512" xmlns="http://www.w3.org/2000/svg"><g><path d="m478.971 240.793 29.535-61.148c9.088-18.815-.248-41.348-19.979-48.223l-64.103-22.335c-10.079-3.512-18.001-11.434-21.513-21.513l-22.334-64.102c-6.875-19.732-29.408-29.067-48.223-19.979l-61.147 29.535c-9.607 4.64-20.807 4.64-30.413 0l-61.149-29.534c-18.815-9.088-41.348.248-48.223 19.979l-22.335 64.103c-3.512 10.079-11.434 18.001-21.513 21.513l-64.102 22.334c-19.732 6.875-29.067 29.408-19.979 48.223l29.535 61.147c4.64 9.607 4.64 20.807 0 30.413l-29.534 61.149c-9.088 18.815.248 41.348 19.979 48.223l64.103 22.335c10.079 3.512 18.001 11.434 21.513 21.513l22.334 64.102c6.875 19.732 29.408 29.067 48.223 19.979l61.147-29.535c9.607-4.64 20.807-4.64 30.413 0l61.148 29.535c18.815 9.088 41.348-.248 48.223-19.979l22.335-64.103c3.512-10.079 11.434-18.001 21.513-21.513l64.102-22.334c19.732-6.875 29.067-29.408 19.979-48.223l-29.535-61.147c-4.64-9.608-4.64-20.808 0-30.415z" fill="#f9efaf"/><circle cx="256" cy="256" fill="#f6e266" r="162.178"/><g fill="#ffc250"><path d="m276.123 416.945c-6.593.814-13.31 1.236-20.119 1.236-89.574 0-162.182-72.617-162.182-162.181 0-89.574 72.607-162.182 162.182-162.182 6.809 0 13.526.423 20.119 1.236-80.076 9.91-142.062 78.18-142.062 160.945 0 82.756 61.986 151.036 142.062 160.946z"/><path d="m256 324.704c-25.793 0-49.302-16.181-58.501-40.264-1.522-3.986.475-8.452 4.462-9.975 3.987-1.525 8.452.476 9.974 4.461 6.929 18.138 24.637 30.324 44.065 30.324s37.137-12.187 44.065-30.324c1.522-3.986 5.985-5.987 9.974-4.461 3.987 1.523 5.984 5.988 4.462 9.975-9.199 24.084-32.708 40.264-58.501 40.264z"/><g><path d="m207.366 231.547c-1.977 0-3.955-.755-5.464-2.263-9.006-9.005-23.659-9.006-32.665.001-3.016 3.017-7.908 3.016-10.927-.001-3.017-3.018-3.017-7.909.001-10.927 15.03-15.031 39.488-15.03 54.518.001 3.017 3.017 3.017 7.909 0 10.927-1.508 1.508-3.486 2.262-5.463 2.262z"/><path d="m304.634 231.547c-1.977 0-3.955-.755-5.464-2.263-3.017-3.017-3.017-7.909 0-10.927 15.029-15.029 39.487-15.031 54.518-.001 3.018 3.018 3.018 7.909.001 10.927-3.018 3.017-7.91 3.018-10.927.001-9.008-9.007-23.663-9.005-32.665-.001-1.508 1.51-3.486 2.264-5.463 2.264z"/></g></g></g></svg>