<svg height="512pt" viewBox="0 0 512 512" width="512pt" xmlns="http://www.w3.org/2000/svg" xmlns:xlink="http://www.w3.org/1999/xlink"><radialGradient id="a" cx="215.8434307844" cy="185.72557" gradientUnits="userSpaceOnUse" r="336.6901399656"><stop offset="0" stop-color="#3b395f"/><stop offset=".3952" stop-color="#39375d"/><stop offset=".6279" stop-color="#323154"/><stop offset=".8179" stop-color="#262846"/><stop offset=".9849" stop-color="#151a32"/><stop offset="1" stop-color="#131830"/></radialGradient><linearGradient id="b"><stop offset="0" stop-color="#cfced3"/><stop offset=".8111" stop-color="#a5abbd"/><stop offset="1" stop-color="#9aa2b7"/></linearGradient><radialGradient id="c" cx="62.9171972308" cy="20.7663273544" gradientUnits="userSpaceOnUse" r="178.7345583686" xlink:href="#b"/><radialGradient id="d" cx="254.2105186428" cy="252.263010355" gradientUnits="userSpaceOnUse" r="228.735596324"><stop offset="0" stop-color="#ffd459"/><stop offset=".2367" stop-color="#ffd55c" stop-opacity=".764706"/><stop offset=".3932" stop-color="#ffd765" stop-opacity=".607843"/><stop offset=".5265" stop-color="#ffdb74" stop-opacity=".47451"/><stop offset=".6468" stop-color="#ffe089" stop-opacity=".352941"/><stop offset=".7583" stop-color="#ffe8a4" stop-opacity=".243137"/><stop offset=".8635" stop-color="#fff0c6" stop-opacity=".137255"/><stop offset=".9617" stop-color="#fffaed" stop-opacity=".039216"/><stop offset="1" stop-color="#fff" stop-opacity="0"/></radialGradient><linearGradient id="e"><stop offset="0" stop-color="#ffebc9"/><stop offset=".2771" stop-color="#ffe9c5"/><stop offset=".5263" stop-color="#fee2bb"/><stop offset=".7641" stop-color="#fdd7a8"/><stop offset=".9948" stop-color="#fbc78f"/><stop offset="1" stop-color="#fbc78e"/></linearGradient><radialGradient id="f" cx="206.1331960238" cy="179.5453257758" gradientUnits="userSpaceOnUse" r="254.0932605532" xlink:href="#e"/><linearGradient id="g" gradientUnits="userSpaceOnUse" x1="90.0408606502" x2="280.7862414346" y1="51.3497067702" y2="284.2599119468"><stop offset="0" stop-color="#fff"/><stop offset=".4417" stop-color="#ffebc9"/><stop offset=".5964" stop-color="#ffe9c5"/><stop offset=".7356" stop-color="#fee2bb"/><stop offset=".8683" stop-color="#fdd7a8"/><stop offset=".9971" stop-color="#fbc78f"/><stop offset="1" stop-color="#fbc78e"/></linearGradient><radialGradient id="h" cx="159.7023" cy="230.8798" gradientTransform="matrix(-1.003922 0 0 -1.003922 322.593129 445.741176)" gradientUnits="userSpaceOnUse" r="74.7842"><stop offset="0" stop-color="#ffebc9"/><stop offset=".3433" stop-color="#ffe9c6"/><stop offset=".567" stop-color="#fee4be"/><stop offset=".7566" stop-color="#fddbaf"/><stop offset=".9261" stop-color="#fcce9a"/><stop offset="1" stop-color="#fbc78e"/></radialGradient><radialGradient id="i" cx="111.4356" cy="301.5058" gradientTransform="matrix(-1.003922 0 0 -1.003922 322.593129 445.741176)" gradientUnits="userSpaceOnUse" r="50.4908" xlink:href="#e"/><radialGradient id="j" cx="104.3049" cy="254.797" gradientTransform="matrix(-1.003922 0 0 -1.003922 322.593129 445.741176)" gradientUnits="userSpaceOnUse" r="31.7619" xlink:href="#e"/><radialGradient id="k" cx="348.929153852" cy="307.8026859844" gradientUnits="userSpaceOnUse" r="157.2476158026" xlink:href="#b"/><linearGradient id="l" gradientUnits="userSpaceOnUse" x1="498.012574774" x2="287.5029815756" y1="391.623446707" y2="394.9083798832"><stop offset=".0018" stop-color="#9aa2b7" stop-opacity="0"/><stop offset=".3682" stop-color="#848a9c" stop-opacity=".368627"/><stop offset="1" stop-color="#606572"/></linearGradient><radialGradient id="m" cx="264.3937010576" cy="347.07089423" gradientUnits="userSpaceOnUse" r="178.7345583686" xlink:href="#b"/><path d="m512 256c0 141.386719-114.613281 256-256 256s-256-114.613281-256-256 114.613281-256 256-256 256 114.613281 256 256zm0 0" fill="url(#a)"/><path d="m485.523438 254.316406c0 126.613282-102.644532 229.257813-229.261719 229.257813-126.613281 0-229.257813-102.644531-229.257813-229.257813 0-126.617187 102.644532-229.257812 229.257813-229.257812 126.617187 0 229.261719 102.640625 229.261719 229.257812zm0 0" fill="url(#d)"/><path d="m444.644531 254.316406c0 104.039063-84.34375 188.378906-188.382812 188.378906-104.039063 0-188.378907-84.339843-188.378907-188.378906 0-104.039062 84.339844-188.378906 188.378907-188.378906 104.039062 0 188.382812 84.339844 188.382812 188.378906zm0 0" fill="url(#f)"/><path d="m426.746094 254.316406c0 94.152344-76.328125 170.480469-170.484375 170.480469-94.152344 0-170.480469-76.328125-170.480469-170.480469 0-94.15625 76.328125-170.484375 170.480469-170.484375 94.15625 0 170.484375 76.328125 170.484375 170.484375zm0 0" fill="url(#g)"/><path d="m189.46875 198.472656c0 24.589844-19.9375 44.527344-44.527344 44.527344-24.59375 0-44.53125-19.9375-44.53125-44.527344 0-24.59375 19.9375-44.53125 44.53125-44.53125 24.589844 0 44.527344 19.9375 44.527344 44.53125zm0 0" fill="url(#h)"/><path d="m225.96875 128.390625c0 15.320313-12.417969 27.742187-27.738281 27.742187-15.320313 0-27.742188-12.421874-27.742188-27.742187 0-15.316406 12.421875-27.738281 27.742188-27.738281 15.320312 0 27.738281 12.421875 27.738281 27.738281zm0 0" fill="url(#i)"/><path d="m231.808594 182.410156c0 10.484375-8.496094 18.980469-18.980469 18.980469-10.480469 0-18.980469-8.496094-18.980469-18.980469 0-10.480468 8.5-18.980468 18.980469-18.980468 10.484375 0 18.980469 8.5 18.980469 18.980468zm0 0" fill="url(#j)"/></svg>